Leòn is Leon van der Zandens vierde soloprogramma waarin hij zich vrijvecht van alles wat hem in de macht wil houden: zijn jeugd, vrouwen, zijn moeder, de pinkstergemeente en de dood.

Het is een twee strijd tussen de loser en de player, de mens en zijn lot, tussen de cabaretier en zijn publiek. Zijn wapens zijn snelle grappen, een expressieve mimiek, een lenig lijf en superveel zelfspot.

Leon daagt je uit om mee te gaan in deze emotionele achtbaan met als mogelijk eindpunt: een onsterfelijk moment.

"Leon van der Zanden heeft in tegenstelling tot veel generatiegenoten daadwerkelijk iets te zeggen." (Algemeen Dagblad)

General
Format                           : AVI
Format/Info                      : Audio Video Interleave
File size                        : 696 MiB
Duration                         : 1h 37mn
Overall bit rate                 : 998 Kbps
Movie name                       : leonzandenleon 0061

Video
ID                               : 0
Format                           : MPEG-4 Visual
Format profile                   : Simple@L3
Format settings, BVOP            : No
Format settings, QPel            : No
Format settings, GMC             : No warppoints
Format settings, Matrix          : Default (H.263)
Codec ID                         : XVID
Codec ID/Hint                    : XviD
Duration                         : 1h 37mn
Bit rate                         : 800 Kbps
Width                            : 672 pixels
Height                           : 368 pixels
Display aspect ratio             : 16:9
Frame rate                       : 30.000 fps
Color space                      : YUV
Chroma subsampling               : 4:2:0
Bit depth                        : 8 bits
Scan type                        : Progressive
Bits/(Pixel*Frame)               : 0.108
Stream size                      : 558 MiB (80%)
Writing library                  : XviD 1.1.2 (UTC 2006-11-01)

Audio
ID                               : 1
Format                           : AC-3
Format/Info                      : Audio Coding 3
Mode extension                   : CM (complete main)
Codec ID                         : 2000
Duration                         : 1h 37mn
Bit rate mode                    : Constant
Bit rate                         : 192 Kbps
Channel(s)                       : 2 channels
Channel positions                : Front: L R
Sampling rate                    : 48.0 KHz
Bit depth                        : 16 bits
Stream size                      : 134 MiB (19%)
Alignment                        : Split accross interleaves
Interleave, duration             : 500 ms (15.00 video frames)
Interleave, preload duration     : 500 ms

Leave your comment about Audio/Video/Movie.